<svg xmlns="http://www.w3.org/2000/svg" viewBox="0 0 128 128" role="img" aria-label="Kello">
  <rect width="128" height="128" rx="22" fill="#2f66f5"/>
  <path
    fill="#fff"
    d="M64 26c-12.15 0-22 9.85-22 22v9.1c0 7.46-2.37 14.83-6.76 20.95l-5.8 8.09A5 5 0 0 0 33.5 94h61a5 5 0 0 0 4.06-7.86l-5.8-8.09C88.37 72 86 64.56 86 57.1V48c0-12.15-9.85-22-22-22Z"
  />
  <path
    fill="#fff"
    d="M48 96c0 8.84 7.16 16 16 16s16-7.16 16-16H48Z"
  />
  <circle cx="64" cy="25" r="5.5" fill="#fff"/>
</svg>
